# xmcd
#
# Track frame offsets:
#	150
#	17965
#	32340
#	47527
#	60590
#	79405
#	96475
#	114432
#	131700
#	145215
#	163667
#	179382
#	192975
#	211602
#	229997
#	246012
#	264285
#	277987
#	290877
#	312200
#
# Disc length: 4403
#
# Revision: 2
# Processed by: cddbd v1.5.1PL0 Copyright (c) Steve Scherf et al.
# Submitted via: CDex 1.50beta9
# Normalized: r1:TDELIM( - )
#
DISCID=20113114
DTITLE=Various Artist - CDX Volume 92 September 1994
DYEAR=1994
DGENRE=Country
TTITLE0=Various Artist - A Voice Still Rings True (Tribute To Keith Whitley)
TTITLE1=Rick Trevino - Doctor Time
TTITLE2=Diamond Rio - Finish What We Started
TTITLE3=Boz Scaggs - Fly Like A Bird
TTITLE4=Katey Sagal - I Don't Wanna Know
TTITLE5=Orrall and Wright - If You Could Say Whay I'm Thinking
TTITLE6=John Michael Montgomery - If You've Got Love
TTITLE7=Aaron Tippin - I Got It Honest
TTITLE8=Jesse Hunter - Long Legges Hannah
TTITLE9=Lynyrd Skynyrd - Sweet Home Alabama
TTITLE10=Randy Travis - This Is Me
TTITLE11=Chely Wright - Till I Was Loved By You
TTITLE12=Vince Gill - When Love Finds You
TTITLE13=John Berry - You And Only You
TTITLE14=Marty Brown - You Must Be Mistakin Me
TTITLE15=The Bellamy Brothers - Medley
TTITLE16=Jeff Foxworthy - Redneck Stomp
TTITLE17=Jerry Clowler - Repair Man
TTITLE18=Bryan White - Eugene (Dance Mix)
TTITLE19=Brooks And Dunn - Folsom Prison Blues
EXTD=YEAR: 1994
EXTT0=
EXTT1=
EXTT2=
EXTT3=
EXTT4=
EXTT5=
EXTT6=
EXTT7=
EXTT8=
EXTT9=
EXTT10=
EXTT11=
EXTT12=
EXTT13=
EXTT14=
EXTT15=
EXTT16=
EXTT17=
EXTT18=
EXTT19=
PLAYORDER=
